<?xml version="1.0" encoding="UTF-8" standalone="no"?>
<!-- Created with Inkscape (http://www.inkscape.org/) -->

<svg
   xmlns:dc="http://purl.org/dc/elements/1.1/"
   xmlns:cc="http://creativecommons.org/ns#"
   xmlns:rdf="http://www.w3.org/1999/02/22-rdf-syntax-ns#"
   xmlns:svg="http://www.w3.org/2000/svg"
   xmlns="http://www.w3.org/2000/svg"
   xmlns:xlink="http://www.w3.org/1999/xlink"
   xmlns:sodipodi="http://sodipodi.sourceforge.net/DTD/sodipodi-0.dtd"
   xmlns:inkscape="http://www.inkscape.org/namespaces/inkscape"
   width="210mm"
   height="297mm"
   id="svg3248"
   version="1.1"
   inkscape:version="0.48.2 r9819"
   sodipodi:docname="Documento nuevo 2">
  <defs
     id="defs3">
    <linearGradient
       y2="286.66129"
       x2="597.34387"
       y1="286.66129"
       x1="562.57599"
       gradientTransform="matrix(1.5508415,0,0,1.1406047,-745.04461,168.55853)"
       gradientUnits="userSpaceOnUse"
       id="linearGradient3144-7"
       xlink:href="#linearGradient3871-4"
       inkscape:collect="always" />
    <linearGradient
       id="linearGradient3871-4">
      <stop
         id="stop3873-0"
         offset="0"
         style="stop-color:#33b5e5;stop-opacity:1;" />
      <stop
         style="stop-color:#33b5e5;stop-opacity:1;"
         offset="0.5"
         id="stop3907-9" />
      <stop
         id="stop3875-4"
         offset="1"
         style="stop-color:#ffffff;stop-opacity:1;" />
    </linearGradient>
    <linearGradient
       inkscape:collect="always"
       xlink:href="#linearGradient3847-1-7-8"
       id="linearGradient3973-8"
       x1="23.940428"
       y1="326.71893"
       x2="43.060738"
       y2="326.71893"
       gradientUnits="userSpaceOnUse"
       gradientTransform="matrix(1.3844329,0,0,1.1304301,92.113434,197.08758)" />
    <linearGradient
       id="linearGradient3847-1-7-8">
      <stop
         id="stop3849-4-7-2"
         offset="0"
         style="stop-color:#ffff00;stop-opacity:1;" />
      <stop
         id="stop3851-9-1-4"
         offset="1"
         style="stop-color:#e7b900;stop-opacity:1;" />
    </linearGradient>
    <linearGradient
       inkscape:collect="always"
       xlink:href="#linearGradient3871-4"
       id="linearGradient3961-5"
       x1="562.57599"
       y1="286.66129"
       x2="597.34387"
       y2="286.66129"
       gradientUnits="userSpaceOnUse"
       gradientTransform="matrix(1.5508415,0,0,1.1406047,-336.23039,174.25337)" />
    <linearGradient
       id="linearGradient3179">
      <stop
         id="stop3181"
         offset="0"
         style="stop-color:#33b5e5;stop-opacity:1;" />
      <stop
         style="stop-color:#33b5e5;stop-opacity:1;"
         offset="0.5"
         id="stop3183" />
      <stop
         id="stop3185"
         offset="1"
         style="stop-color:#ffffff;stop-opacity:1;" />
    </linearGradient>
    <linearGradient
       inkscape:collect="always"
       xlink:href="#linearGradient3847-1-7-8"
       id="linearGradient3971-5"
       x1="211.99992"
       y1="291.61432"
       x2="255.45976"
       y2="291.61432"
       gradientUnits="userSpaceOnUse"
       gradientTransform="matrix(0.8422511,0,0,1.0835871,91.020374,185.89484)" />
    <linearGradient
       id="linearGradient3188">
      <stop
         id="stop3190"
         offset="0"
         style="stop-color:#ffff00;stop-opacity:1;" />
      <stop
         id="stop3192"
         offset="1"
         style="stop-color:#e7b900;stop-opacity:1;" />
    </linearGradient>
    <linearGradient
       inkscape:collect="always"
       xlink:href="#linearGradient3847-1-7-8"
       id="linearGradient3859-2-2-1"
       x1="257.30765"
       y1="367.32172"
       x2="319.16989"
       y2="367.32172"
       gradientUnits="userSpaceOnUse"
       gradientTransform="matrix(2.6713387,0,0,2.2417635,-424.6839,-465.5229)" />
    <linearGradient
       id="linearGradient3195">
      <stop
         id="stop3197"
         offset="0"
         style="stop-color:#ffff00;stop-opacity:1;" />
      <stop
         id="stop3199"
         offset="1"
         style="stop-color:#e7b900;stop-opacity:1;" />
    </linearGradient>
    <linearGradient
       inkscape:collect="always"
       xlink:href="#linearGradient3847-1-7-8"
       id="linearGradient3845-8-2-7"
       x1="316.37906"
       y1="412.53284"
       x2="364.44885"
       y2="358.99475"
       gradientUnits="userSpaceOnUse"
       gradientTransform="matrix(2.6713387,0,0,2.2417635,-424.6839,-465.5229)" />
    <linearGradient
       id="linearGradient3202">
      <stop
         id="stop3204"
         offset="0"
         style="stop-color:#ffff00;stop-opacity:1;" />
      <stop
         id="stop3206"
         offset="1"
         style="stop-color:#e7b900;stop-opacity:1;" />
    </linearGradient>
    <linearGradient
       inkscape:collect="always"
       xlink:href="#linearGradient3871-4"
       id="linearGradient3875-2-6-1"
       x1="242.97244"
       y1="365.09872"
       x2="274.67929"
       y2="365.09872"
       gradientUnits="userSpaceOnUse"
       gradientTransform="matrix(2.6713387,0,0,2.2417635,-424.6839,-465.5229)" />
    <linearGradient
       id="linearGradient3209">
      <stop
         id="stop3211"
         offset="0"
         style="stop-color:#33b5e5;stop-opacity:1;" />
      <stop
         style="stop-color:#33b5e5;stop-opacity:1;"
         offset="0.5"
         id="stop3213" />
      <stop
         id="stop3215"
         offset="1"
         style="stop-color:#ffffff;stop-opacity:1;" />
    </linearGradient>
    <linearGradient
       inkscape:collect="always"
       xlink:href="#linearGradient3871-4"
       id="linearGradient3867-9-4-1"
       x1="284.04132"
       y1="407.39914"
       x2="343.07358"
       y2="338.70877"
       gradientUnits="userSpaceOnUse"
       gradientTransform="matrix(2.6713387,0,0,2.2417635,-424.6839,-465.5229)" />
    <linearGradient
       id="linearGradient3218">
      <stop
         id="stop3220"
         offset="0"
         style="stop-color:#33b5e5;stop-opacity:1;" />
      <stop
         style="stop-color:#33b5e5;stop-opacity:1;"
         offset="0.5"
         id="stop3222" />
      <stop
         id="stop3224"
         offset="1"
         style="stop-color:#ffffff;stop-opacity:1;" />
    </linearGradient>
  </defs>
  <sodipodi:namedview
     inkscape:document-units="mm"
     id="base"
     pagecolor="#ffffff"
     bordercolor="#666666"
     borderopacity="1.0"
     inkscape:pageopacity="0.0"
     inkscape:pageshadow="2"
     inkscape:zoom="0.35"
     inkscape:cx="-122.85714"
     inkscape:cy="177.14286"
     inkscape:current-layer="layer1"
     showgrid="false"
     inkscape:window-width="1920"
     inkscape:window-height="1138"
     inkscape:window-x="-8"
     inkscape:window-y="-8"
     inkscape:window-maximized="1" />
  <metadata
     id="metadata4">
    <rdf:RDF>
      <cc:Work
         rdf:about="">
        <dc:format>image/svg+xml</dc:format>
        <dc:type
           rdf:resource="http://purl.org/dc/dcmitype/StillImage" />
        <dc:title></dc:title>
      </cc:Work>
    </rdf:RDF>
  </metadata>
  <g
     inkscape:label="Layer 1"
     inkscape:groupmode="layer"
     id="layer1">
    <rect
       style="fill:#000001;fill-opacity:1;fill-rule:nonzero;stroke:none"
       id="rect4083-6-1"
       width="1022.6235"
       height="727.12549"
       x="-127.02605"
       y="44.513718" />
    <path
       style="fill:url(#linearGradient3867-9-4-1);fill-opacity:1;stroke:#ffffff;stroke-opacity:1"
       d="m 319.23172,446.17244 62.0131,28.82269 0.95413,-104.88258 178.40719,-64.85098 -175.54511,-43.23397 -34.34575,9.60758 107.80762,32.02512 -139.29118,42.43342 z"
       id="path2996-9-2"
       inkscape:connector-curvature="0" />
    <path
       style="fill:url(#linearGradient3875-2-6-1);fill-opacity:1;stroke:#ffffff;stroke-opacity:1"
       d="m 255.22126,318.99586 52.52072,-18.64893 -25.5758,-9.41334 -56.45268,19.97547 0,88.8297 27.04082,15.21198 z"
       id="path3000-8-4"
       inkscape:connector-curvature="0"
       sodipodi:nodetypes="ccccccc" />
    <path
       style="fill:url(#linearGradient3845-8-2-7);fill-opacity:1;fill-rule:nonzero;stroke:#ffffff;stroke-opacity:1"
       d="m 453.29929,449.50538 -58.47648,24.62531 1.46503,-98.59823 174.59104,-62.44908 0.9541,68.6599 -96.47475,41.06658 1.06977,-24.99711 46.97995,-20.44451 0.10554,-15.72951 -69.37614,27.60161 z"
       id="path3002-6-5"
       inkscape:connector-curvature="0"
       sodipodi:nodetypes="ccccccccccc" />
    <path
       id="path3044-6-8"
       style="fill:url(#linearGradient3859-2-2-1);fill-opacity:1;stroke:#ffffff;stroke-opacity:1"
       d="m 292.67716,286.57244 45.79442,-11.20883 88.11974,26.98692 -118.64939,37.06343 -1.23341,101.07358 -42.70072,-20.71923 0.95402,-96.17273 44.07043,-15.66241 23.97969,7.13433 46.63995,-14.27765 -24.63118,-7.53476 -24.18157,6.92797 z"
       inkscape:connector-curvature="0"
       sodipodi:nodetypes="ccccccccccccc" />
    <path
       inkscape:connector-curvature="0"
       id="path3905"
       style="font-size:63.34587097px;font-style:normal;font-variant:normal;font-weight:normal;font-stretch:normal;line-height:125%;letter-spacing:0px;word-spacing:0px;fill:#ffffff;fill-opacity:1;stroke:#ffffff;stroke-opacity:1;font-family:Orion Pax;-inkscape-font-specification:Orion Pax"
       d="m 185.58525,513.3893 -5.3214,-16.69331 -8.7595,27.49803 -7.66456,0 12.04431,-37.81654 8.7595,0 12.04432,37.81654 -7.66457,0 -1.73,-5.40236 -12.50418,0 4.37974,-5.40236 z" />
    <path
       inkscape:connector-curvature="0"
       id="path3907"
       style="font-size:63.34587097px;font-style:normal;font-variant:normal;font-weight:normal;font-stretch:normal;line-height:125%;letter-spacing:0px;word-spacing:0px;fill:#ffffff;fill-opacity:1;stroke:#ffffff;stroke-opacity:1;font-family:Orion Pax;-inkscape-font-specification:Orion Pax"
       d="m 227.34615,516.09048 c 0.59854,1e-5 1.11316,-0.39617 1.54387,-1.18853 0.43065,-0.79234 0.64599,-1.74675 0.64602,-2.86324 -3e-5,-1.11648 -0.21537,-2.0709 -0.64602,-2.86326 -0.43071,-0.79233 -0.94533,-1.18852 -1.54387,-1.18852 l -15.32912,0 c -2.42346,0 -4.48924,-1.05345 -6.19734,-3.16038 -1.70811,-2.10691 -2.56216,-4.65502 -2.56216,-7.64434 0,-2.9893 0.85405,-5.5374 2.56216,-7.64435 1.7081,-2.10689 3.77388,-3.16035 6.19734,-3.16038 l 24.08863,0 -6.56962,8.10354 -17.51901,0 c -0.59857,3e-5 -1.11318,0.3962 -1.54386,1.18852 -0.43068,0.79237 -0.64602,1.74679 -0.64601,2.86326 -1e-5,1.1165 0.21533,2.07093 0.64601,2.86324 0.43068,0.79237 0.94529,1.18854 1.54386,1.18853 l 15.32912,0 c 2.42344,1e-5 4.48923,1.05347 6.19735,3.16038 1.70807,2.10694 2.56213,4.65505 2.56216,7.64435 -3e-5,2.98931 -0.85409,5.53743 -2.56216,7.64434 -1.70812,2.10691 -3.77391,3.16038 -6.19735,3.16038 l -17.51899,0 -6.56963,-8.10354 z" />
    <path
       inkscape:connector-curvature="0"
       id="path3909"
       style="font-size:63.34587097px;font-style:normal;font-variant:normal;font-weight:normal;font-stretch:normal;line-height:125%;letter-spacing:0px;word-spacing:0px;fill:url(#linearGradient3971-5);fill-opacity:1;stroke:#ffffff;stroke-opacity:1;font-family:Orion Pax;-inkscape-font-specification:Orion Pax"
       d="m 269.57754,471.47111 26.843,0 c 2.70054,5e-5 5.00254,1.39547 6.90597,4.18629 1.9034,2.7909 2.85509,6.16616 2.85513,10.12582 l 0,3.57803 c -4e-5,3.9597 -0.95173,7.33497 -2.85513,10.12581 -1.90343,2.79087 -4.20543,4.18631 -6.90597,4.1863 l -12.08191,0 -0.11946,-7.15606 12.20137,0 c 0.66698,2e-5 1.24044,-0.52475 1.7204,-1.57434 0.47989,-1.04952 0.71985,-2.31376 0.71988,-3.7927 l 0,-3.57803 c -3e-5,-1.47889 -0.23999,-2.74312 -0.71988,-3.79271 -0.47996,-1.04952 -1.05342,-1.5743 -1.7204,-1.57433 l -19.52218,0 0.71429,38.66381 -8.03511,0.69449 z"
       sodipodi:nodetypes="cccccsscccccccccccc" />
    <path
       inkscape:connector-curvature="0"
       id="path3911"
       style="font-size:63.34587097px;font-style:normal;font-variant:normal;font-weight:normal;font-stretch:normal;line-height:125%;letter-spacing:0px;word-spacing:0px;fill:#ffffff;fill-opacity:1;stroke:#ffffff;stroke-opacity:1;font-family:Orion Pax;-inkscape-font-specification:Orion Pax"
       d="m 334.49672,513.3893 -5.32139,-16.69331 -8.7595,27.49803 -7.66456,0 12.04431,-37.81654 8.7595,0 12.0443,37.81654 -7.66454,0 -1.73001,-5.40236 -12.50419,0 4.37975,-5.40236 z" />
    <path
       inkscape:connector-curvature="0"
       id="path3913"
       style="font-size:63.34587097px;font-style:normal;font-variant:normal;font-weight:normal;font-stretch:normal;line-height:125%;letter-spacing:0px;word-spacing:0px;fill:#ffffff;fill-opacity:1;stroke:#ffffff;stroke-opacity:1;font-family:Orion Pax;-inkscape-font-specification:Orion Pax"
       d="m 352.16901,524.19402 0,-37.81654 6.56963,0 0,29.713 19.70886,0 -6.56962,8.10354 z" />
    <path
       inkscape:connector-curvature="0"
       id="path3915"
       style="font-size:63.34587097px;font-style:normal;font-variant:normal;font-weight:normal;font-stretch:normal;line-height:125%;letter-spacing:0px;word-spacing:0px;fill:#ffffff;fill-opacity:1;stroke:#ffffff;stroke-opacity:1;font-family:Orion Pax;-inkscape-font-specification:Orion Pax"
       d="m 391.58675,500.12649 0,24.06753 -6.56962,0 0,-37.81654 9.85443,0 8.75951,27.49803 8.75949,-27.49803 9.85444,0 0,37.81654 -6.56963,0 0,-24.06753 -7.66456,24.06753 -8.7595,0 z" />
    <path
       inkscape:connector-curvature="0"
       id="path3917"
       style="font-size:63.34587097px;font-style:normal;font-variant:normal;font-weight:normal;font-stretch:normal;line-height:125%;letter-spacing:0px;word-spacing:0px;fill:#ffffff;fill-opacity:1;stroke:#ffffff;stroke-opacity:1;font-family:Orion Pax;-inkscape-font-specification:Orion Pax"
       d="m 450.56007,513.3893 -5.32139,-16.69331 -8.7595,27.49803 -7.66456,0 12.04432,-37.81654 8.75949,0 12.04431,37.81654 -7.66456,0 -1.73,-5.40236 -12.50418,0 4.37974,-5.40236 z" />
    <path
       inkscape:connector-curvature="0"
       id="path3919"
       style="font-size:63.34587097px;font-style:normal;font-variant:normal;font-weight:normal;font-stretch:normal;line-height:125%;letter-spacing:0px;word-spacing:0px;fill:#ffffff;fill-opacity:1;stroke:#ffffff;stroke-opacity:1;font-family:Orion Pax;-inkscape-font-specification:Orion Pax"
       d="m 492.32098,516.09048 c 0.59854,1e-5 1.11316,-0.39617 1.54386,-1.18853 0.43065,-0.79234 0.64599,-1.74675 0.64602,-2.86324 -3e-5,-1.11648 -0.21537,-2.0709 -0.64602,-2.86326 -0.4307,-0.79233 -0.94532,-1.18852 -1.54386,-1.18852 l -15.32912,0 c -2.42347,0 -4.48925,-1.05345 -6.19734,-3.16038 -1.70811,-2.10691 -2.56215,-4.65502 -2.56215,-7.64434 0,-2.9893 0.85404,-5.5374 2.56215,-7.64435 1.70809,-2.10689 3.77387,-3.16035 6.19734,-3.16038 l 24.08862,0 -6.56962,8.10354 -17.519,0 c -0.59857,3e-5 -1.11319,0.3962 -1.54386,1.18852 -0.43068,0.79237 -0.64602,1.74679 -0.64602,2.86326 0,1.1165 0.21534,2.07093 0.64602,2.86324 0.43067,0.79237 0.94529,1.18854 1.54386,1.18853 l 15.32912,0 c 2.42344,1e-5 4.48921,1.05347 6.19735,3.16038 1.70807,2.10694 2.56212,4.65505 2.56215,7.64435 -3e-5,2.98931 -0.85408,5.53743 -2.56215,7.64434 -1.70814,2.10691 -3.77391,3.16038 -6.19735,3.16038 l -17.519,0 -6.56961,-8.10354 z" />
    <path
       inkscape:connector-curvature="0"
       id="path3921"
       style="font-size:63.34587097px;font-style:normal;font-variant:normal;font-weight:normal;font-stretch:normal;line-height:125%;letter-spacing:0px;word-spacing:0px;fill:url(#linearGradient3961-5);fill-opacity:1;stroke:#ffffff;stroke-width:1.28972554;stroke-opacity:1;font-family:Orion Pax;-inkscape-font-specification:Orion Pax"
       d="m 536.23582,527.58469 0,-44.82638 -4.95326,0.11038 -0.18404,-8.04065 5.13724,0.0285 13.47986,0 0,41.42932 16.67483,0 -0.75304,11.29889 z"
       sodipodi:nodetypes="cccccccccc" />
    <path
       inkscape:connector-curvature="0"
       id="path3923"
       style="font-size:63.34587097px;font-style:normal;font-variant:normal;font-weight:normal;font-stretch:normal;line-height:125%;letter-spacing:0px;word-spacing:0px;fill:#ffffff;fill-opacity:1;stroke:#ffffff;stroke-opacity:1;font-family:Orion Pax;-inkscape-font-specification:Orion Pax"
       d="m 592.90188,513.3893 -5.3214,-16.69331 -8.7595,27.49803 -7.6645,0 12.0443,-37.81654 8.7595,0 12.0443,37.81654 -7.6646,0 -1.73,-5.40236 -12.5042,0 4.3798,-5.40236 z" />
    <path
       inkscape:connector-curvature="0"
       id="path3925"
       style="font-size:63.34587097px;font-style:normal;font-variant:normal;font-weight:normal;font-stretch:normal;line-height:125%;letter-spacing:0px;word-spacing:0px;fill:#ffffff;fill-opacity:1;stroke:#ffffff;stroke-opacity:1;font-family:Orion Pax;-inkscape-font-specification:Orion Pax"
       d="m 617.14388,496.23678 0,27.95724 -6.5697,0 0,-37.81654 7.6646,0 18.6139,27.95723 0,-27.95723 6.5697,0 0,37.81654 -7.6646,0 z" />
    <path
       inkscape:connector-curvature="0"
       id="path3921-4"
       style="font-size:63.34587097px;font-style:normal;font-variant:normal;font-weight:normal;font-stretch:normal;line-height:125%;letter-spacing:0px;word-spacing:0px;fill:url(#linearGradient3144-7);fill-opacity:1;stroke:#ffffff;stroke-width:1.28972554;stroke-opacity:1;font-family:Orion Pax;-inkscape-font-specification:Orion Pax"
       d="m 127.42165,521.88985 0,-44.82638 -4.95326,0.11038 -0.18404,-8.04065 5.13724,0.0285 13.47985,0 0,41.42932 16.67483,0 -0.75304,11.29889 z"
       sodipodi:nodetypes="cccccccccc" />
  </g>
</svg>
